<svg version="1.1" id="Layer_1" xmlns="http://www.w3.org/2000/svg" xmlns:xlink="http://www.w3.org/1999/xlink" x="0px" y="0px"
	 width="100%" viewBox="0 0 512 512" enable-background="new 0 0 512 512" xml:space="preserve">
<path fill="#000000" opacity="1.000000" stroke="none" 
	d="
M1.000000,181.468658 
	C4.336742,176.691528 8.645585,175.469818 14.104519,175.532150 
	C38.261482,175.807907 62.423344,175.648102 86.583427,175.661270 
	C94.523590,175.665604 98.240059,178.907562 98.342285,185.847870 
	C98.451431,193.258835 94.533966,197.259354 86.517220,197.306335 
	C66.856598,197.421585 47.193348,197.473419 27.534618,197.248230 
	C22.845493,197.194534 21.182552,198.397964 21.242046,203.353653 
	C21.498035,224.678101 21.100267,246.011017 21.407776,267.334106 
	C21.900501,301.500580 28.707479,334.206421 45.666042,364.254425 
	C57.015327,384.363678 71.297318,402.106140 89.131851,416.950012 
	C96.028969,422.690552 103.217628,427.933838 110.650085,432.945251 
	C114.755615,435.713470 118.775642,436.744781 123.626648,436.734711 
	C179.777786,436.618164 235.930695,436.458618 292.079224,436.859985 
	C301.559265,436.927734 309.414062,434.774689 317.081696,429.388885 
	C348.662476,407.206299 372.018524,378.513062 386.409363,342.696594 
	C394.956055,321.425262 398.962158,299.311218 399.923767,276.290894 
	C400.939331,251.979996 399.982666,227.698715 400.744507,203.420761 
	C400.898132,198.524780 399.265564,197.251526 394.519226,197.261398 
	C330.037079,197.395721 265.554535,197.349136 201.072113,197.344727 
	C199.072800,197.344589 197.060562,197.459198 195.076492,197.277908 
	C187.964615,196.627991 184.405594,192.508698 184.668106,185.386459 
	C184.903305,179.005203 188.721619,175.666870 195.925491,175.664352 
	C235.081497,175.650681 274.237488,175.658188 313.393494,175.657333 
	C345.384766,175.656631 377.376068,175.647110 409.367340,175.657654 
	C418.151703,175.660553 421.317139,178.867493 421.346954,187.708069 
	C421.359863,191.540329 421.348083,195.372650 421.350525,199.204941 
	C421.355316,206.648163 421.356232,206.650726 428.574127,206.651138 
	C452.734222,206.652512 476.894379,206.685898 501.054291,206.622147 
	C505.654175,206.610001 509.530029,207.901917 512.740479,211.768570 
	C513.000000,242.020889 513.000000,272.041779 512.881958,302.894775 
	C512.478943,305.521423 512.285339,307.336151 511.895111,309.107544 
	C507.168091,330.564941 496.578705,348.700958 479.899841,362.895020 
	C466.715240,374.115356 451.524048,381.502258 434.199707,384.537231 
	C420.637451,386.913116 407.049835,386.223572 393.455109,386.306763 
	C390.286224,386.326172 388.177399,387.179688 386.456879,389.893768 
	C377.149994,404.574921 365.365143,417.163605 352.977234,429.241180 
	C350.712830,431.448914 347.105530,432.361847 346.082855,435.975037 
	C348.151520,437.137878 350.184082,436.629242 352.117279,436.632111 
	C379.926392,436.673431 407.735596,436.645447 435.544739,436.675232 
	C441.904602,436.682037 445.285767,440.098938 445.333405,446.477356 
	C445.369324,451.285095 445.461334,456.067413 444.377838,460.846649 
	C439.249847,483.465912 426.133667,499.338287 404.885010,508.679871 
	C401.597260,510.125305 397.761810,510.368500 395.000000,513.000000 
	C280.645782,513.000000 166.291550,513.000000 51.298103,512.759277 
	C49.936962,512.159058 49.248779,511.689789 48.488205,511.456116 
	C27.946678,505.144012 13.426975,492.243866 5.037593,472.346710 
	C3.724571,469.232574 3.836964,465.453033 1.000000,463.000000 
	C1.000000,455.979034 1.000000,448.958099 1.275314,441.357300 
	C4.030756,437.805145 7.072929,436.559235 11.067913,436.590881 
	C30.565611,436.745300 50.065231,436.656952 69.564171,436.654541 
	C71.507561,436.654297 73.450943,436.654510 76.362831,436.654510 
	C74.760338,434.595001 73.950279,433.137024 72.769417,432.102142 
	C63.260227,423.768677 54.590603,414.717377 46.563885,404.883911 
	C25.115038,378.607025 11.616058,348.764923 4.457258,315.780701 
	C3.387467,310.851654 4.063029,305.466400 1.000000,301.000000 
	C1.000000,261.312439 1.000000,221.624878 1.000000,181.468658 
M74.500031,457.366028 
	C59.507977,457.368317 44.515919,457.366486 29.523870,457.374756 
	C22.712425,457.378510 22.075701,458.162811 25.020681,464.459900 
	C33.320709,482.207397 47.322647,492.462036 66.941383,492.516785 
	C171.051880,492.807098 275.163910,492.772247 379.274658,492.532715 
	C396.087830,492.494049 409.246490,484.464050 418.149933,470.069977 
	C420.440247,466.367279 422.755005,462.465881 422.531006,457.367065 
	C306.664307,457.367065 191.082184,457.367065 74.500031,457.366028 
M469.749207,342.248016 
	C486.296753,326.180908 492.113770,305.848999 492.587738,283.602203 
	C492.931976,267.445801 492.667053,251.276260 492.659302,235.112579 
	C492.656097,228.407959 492.638977,228.371597 486.110413,228.363266 
	C468.780304,228.341110 451.450165,228.351089 434.120026,228.352798 
	C421.176178,228.354065 421.334534,228.358078 421.260315,241.353729 
	C421.236328,245.553589 422.631226,246.804855 426.726227,246.728088 
	C438.386597,246.509567 450.054230,246.595230 461.718170,246.678421 
	C469.954712,246.737167 473.324738,250.132217 473.341797,258.179565 
	C473.367950,270.510590 473.838715,282.866333 473.220703,295.166351 
	C472.497375,309.562592 465.882202,321.521362 455.351227,331.190369 
	C443.236572,342.313416 428.675995,346.888031 412.380310,346.411469 
	C410.738678,346.363434 409.027679,346.217560 408.243347,348.316376 
	C406.293365,353.534180 403.327850,358.374054 402.036835,364.311066 
	C427.693054,366.302917 450.486176,360.872375 469.749207,342.248016 
M427.705231,268.350220 
	C422.686554,267.530426 420.982025,269.521545 421.250671,274.662659 
	C421.866455,286.446686 420.724518,298.125122 418.595093,309.771942 
	C417.729523,314.506195 415.921082,319.247437 416.426636,324.258667 
	C433.501404,323.422028 446.289520,313.647797 450.649780,297.851959 
	C452.870819,289.805847 452.702026,281.456238 452.724976,273.148315 
	C452.735565,269.318604 451.147308,268.229919 447.633698,268.313934 
	C441.311523,268.465149 434.983032,268.353241 427.705231,268.350220 
z"/>
<path fill="#000000" opacity="1.000000" stroke="none" 
	d="
M212.541931,1.000000 
	C219.077621,7.036942 220.400497,11.159511 215.956924,17.626499 
	C206.884567,30.830050 210.101990,42.204716 219.502457,53.337788 
	C228.249573,63.697105 233.162125,75.748291 233.245056,89.291603 
	C233.345139,105.634003 227.095795,119.652649 215.666931,131.294083 
	C211.046387,136.000580 205.420563,136.507950 200.973648,132.962967 
	C196.266251,129.210342 195.323334,123.374557 198.662399,117.805077 
	C201.471878,113.118973 205.363632,109.212021 207.861755,104.237740 
	C214.633347,90.754044 211.711227,78.741974 202.614090,67.758377 
	C193.837280,57.161530 188.019333,45.391853 188.812576,31.452734 
	C189.455490,20.155499 192.888138,9.600452 201.770508,1.244992 
	C205.361282,1.000000 208.722580,1.000000 212.541931,1.000000 
z"/>
<path fill="#000000" opacity="1.000000" stroke="none" 
	d="
M284.719635,133.355774 
	C281.288422,141.065201 276.908661,147.718948 271.388519,153.540588 
	C266.631531,158.557449 260.651093,158.723175 255.792221,154.884338 
	C250.929672,151.042587 251.063644,144.281708 255.040390,138.876312 
	C259.247406,133.157913 264.026215,127.956848 265.728760,120.614700 
	C268.389008,109.142632 265.372467,99.322243 258.346191,90.391472 
	C252.460388,82.910316 246.923279,75.293777 245.349716,65.553322 
	C243.048019,51.305737 245.206924,38.096569 254.383957,26.541353 
	C258.048035,21.927763 265.000336,21.389427 270.153046,25.144600 
	C273.751404,27.767012 274.875092,35.270584 271.880035,39.801960 
	C268.888947,44.327335 266.758240,48.971535 266.304596,54.465206 
	C265.634430,62.581516 269.204590,69.048767 274.118744,74.825111 
	C288.908875,92.210266 291.958954,111.647820 284.719635,133.355774 
z"/>
<path fill="#000000" opacity="1.000000" stroke="none" 
	d="
M154.497253,122.341873 
	C158.280380,108.244827 153.418976,97.102295 144.759903,86.681664 
	C131.996399,71.321579 130.172760,54.092064 137.774368,35.855522 
	C139.216812,32.395008 141.460922,29.121906 143.919434,26.265179 
	C147.866943,21.678301 154.298645,21.503513 159.255554,25.328777 
	C162.754349,28.028805 163.715607,34.952999 161.030411,39.558582 
	C158.348099,44.159161 155.752945,48.656189 155.279541,54.212852 
	C154.551086,62.763493 158.516052,69.386322 163.641922,75.381004 
	C177.450546,91.530144 180.754807,109.988907 175.071823,129.896301 
	C172.279800,139.676788 166.104721,148.025085 158.795944,155.221252 
	C155.695099,158.274353 149.263214,158.208801 145.785278,155.619598 
	C141.771667,152.631592 140.456207,147.111740 142.415237,142.133545 
	C143.602112,139.117538 145.839584,136.843719 147.711578,134.340485 
	C150.420059,130.718628 152.781525,126.953506 154.497253,122.341873 
z"/>
<path fill="#000000" opacity="1.000000" stroke="none" 
	d="
M333.577118,380.501770 
	C331.082214,382.991669 328.858063,385.244049 326.601501,387.463470 
	C322.157013,391.834869 317.013977,392.144958 311.899719,388.376038 
	C307.955719,385.469543 307.005280,379.464386 309.456757,374.526581 
	C311.741760,369.924072 315.941895,367.005127 319.072906,363.142761 
	C333.977966,344.756104 344.198975,324.183868 348.943634,300.968048 
	C350.401917,293.832642 352.090240,286.692474 351.624390,279.320343 
	C351.421692,276.112549 352.048645,273.035431 352.712280,269.959381 
	C353.892212,264.490387 358.344238,261.997192 365.492401,262.691528 
	C370.022034,263.131470 373.197876,266.879089 373.345123,271.938263 
	C374.255737,303.226746 365.522247,331.853729 349.523285,358.494080 
	C344.900848,366.190979 339.291565,373.162506 333.577118,380.501770 
z"/>
<path fill="#000000" opacity="1.000000" stroke="none" 
	d="
M287.657410,394.684875 
	C295.866241,397.193451 298.674927,402.301056 296.150574,409.373535 
	C294.195007,414.852509 287.189789,417.506683 281.231201,415.026245 
	C276.410217,413.019287 274.428192,408.305084 275.759338,402.011505 
	C276.729889,397.422974 280.931915,394.733704 287.657410,394.684875 
z"/>
<path fill="#000000" opacity="1.000000" stroke="none" 
	d="
M151.955811,193.987793 
	C148.420166,196.327438 145.200470,198.098892 141.059357,196.578583 
	C134.741364,194.259033 131.747177,188.454056 133.974808,182.339706 
	C135.884094,177.099075 143.141129,174.108841 148.458725,176.371689 
	C154.137695,178.788315 156.525803,184.924332 153.998077,190.753464 
	C153.544556,191.799316 152.833603,192.733521 151.955811,193.987793 
z"/>
</svg>