<svg version="1.1" id="Layer_1" xmlns="http://www.w3.org/2000/svg" xmlns:xlink="http://www.w3.org/1999/xlink" x="0px" y="0px"
	 width="100%" viewBox="0 0 512 512" enable-background="new 0 0 512 512" xml:space="preserve">
<path fill="#000000" opacity="1.000000" stroke="none" 
	d="
M101.000000,513.000000 
	C67.790077,513.000000 34.580162,513.000000 1.000000,513.000000 
	C1.000000,506.984650 1.000000,500.961700 1.396944,494.582275 
	C2.614001,494.347260 3.434003,494.574036 4.254241,494.574890 
	C29.730499,494.601837 55.207088,494.545288 80.682785,494.671143 
	C85.315254,494.694000 85.660370,492.128845 85.655304,488.561127 
	C85.601372,450.596436 85.551712,412.631317 85.706482,374.667175 
	C85.726067,369.863647 84.238182,368.240112 79.388954,368.306274 
	C62.241352,368.540283 45.088207,368.476227 27.938086,368.372589 
	C18.959141,368.318359 9.967959,368.891876 1.000000,368.000000 
	C1.000000,361.978851 1.000000,355.957703 1.394871,349.586975 
	C3.776465,349.364594 5.763025,349.599274 7.749938,349.602295 
	C27.889282,349.632812 48.030251,349.477875 68.167404,349.691620 
	C78.113335,349.797211 88.100449,348.665222 98.017471,350.469177 
	C100.083359,350.845001 101.845360,349.695557 103.426903,348.374725 
	C107.239723,345.190430 111.118347,342.083771 114.888084,338.849823 
	C115.929619,337.956329 117.476013,337.175720 116.996452,335.287872 
	C115.204453,333.848419 113.125580,334.435822 111.194550,334.431213 
	C92.886124,334.387695 74.561058,334.892273 56.273659,334.271149 
	C37.941925,333.648529 23.419270,324.962067 12.164470,310.610504 
	C6.855500,303.840820 4.244490,295.771606 1.000000,288.000000 
	C1.000000,281.978851 1.000000,275.957703 1.255659,269.219666 
	C4.409644,265.685547 7.841286,264.482483 11.912400,264.591339 
	C17.737768,264.747162 23.574209,264.499115 29.398869,264.667450 
	C33.314102,264.780640 34.808098,263.104370 34.648205,259.290924 
	C34.299282,250.969299 35.428883,242.763123 36.498497,234.519226 
	C40.940971,200.279541 53.240208,169.066528 72.367470,140.480209 
	C83.899353,123.245438 98.154747,108.421532 113.808327,94.901993 
	C133.661865,77.755058 156.120956,65.003052 180.696854,56.082695 
	C200.419327,48.923992 220.755798,44.321541 241.839981,43.548477 
	C244.836136,43.438614 247.574585,42.631783 247.592957,38.790207 
	C247.617645,33.627117 247.596069,28.463791 247.590576,23.300568 
	C247.587662,20.553185 246.005219,19.709385 243.475128,19.371916 
	C239.332642,18.819378 233.610153,21.659775 231.407486,17.704540 
	C229.470306,14.226071 230.735123,8.947657 230.655640,4.462925 
	C230.635208,3.311014 230.878082,2.154435 231.000000,1.000000 
	C248.020889,1.000000 265.041779,1.000000 282.647644,1.456018 
	C283.279999,3.408991 283.465942,4.916936 283.348236,6.400793 
	C283.023987,10.488029 285.081055,15.482115 282.239014,18.431105 
	C279.721985,21.042849 274.932892,19.243246 271.156281,19.359900 
	C267.833282,19.462543 266.257141,20.751284 266.353424,24.182076 
	C266.474823,28.508217 266.571869,32.851215 266.327637,37.167034 
	C266.067719,41.760082 268.320068,43.608807 272.537201,43.574944 
	C278.870087,43.524082 285.064453,44.601414 291.298065,45.511562 
	C322.828003,50.115154 351.778900,61.446812 378.499115,78.671638 
	C399.504425,92.212448 417.416260,109.155159 432.889069,128.676956 
	C444.385986,143.182449 453.760376,158.990326 461.126495,176.020157 
	C471.902710,200.933807 478.288513,226.856461 479.302917,253.986389 
	C479.737000,265.596191 478.414429,264.482819 490.252808,264.677032 
	C497.949615,264.803314 505.990326,263.012878 513.000000,268.000000 
	C513.000000,273.688049 513.000000,279.376068 512.934692,285.890015 
	C512.522827,287.649017 512.098816,288.561218 511.840912,289.518188 
	C506.968872,307.595581 495.981964,320.534027 479.284180,328.907196 
	C473.002472,332.057159 466.121857,333.058716 459.746887,334.903595 
	C458.994202,337.099365 460.001343,338.536194 460.533234,340.090851 
	C465.254120,353.889465 462.077637,369.822357 450.097382,379.207397 
	C445.269165,382.989655 440.724152,387.131683 436.010498,391.062378 
	C422.005554,402.741211 408.008911,414.430267 393.956207,426.051422 
	C379.269806,438.196625 364.530426,450.277771 349.798798,462.368134 
	C337.036102,472.842621 323.178467,479.646606 305.907928,479.543213 
	C241.299377,479.156372 176.687164,479.384552 112.076332,479.381714 
	C104.380310,479.381378 104.531929,479.386078 104.334190,487.236664 
	C104.115395,495.923798 106.052185,504.927094 101.000000,513.000000 
M195.580948,71.303085 
	C180.894577,76.238625 166.738983,82.314308 153.431580,90.339302 
	C131.438919,103.601944 112.547363,120.300682 96.557426,140.404724 
	C83.287491,157.088913 73.354691,175.606842 65.908173,195.450867 
	C58.581623,214.975174 54.129704,235.197845 53.424530,256.108826 
	C53.137882,264.608978 53.375874,264.628052 61.888691,264.628204 
	C192.198715,264.630737 322.508759,264.630188 452.818787,264.630066 
	C453.651978,264.630066 454.490204,264.565491 455.317474,264.634399 
	C459.143768,264.953186 460.703583,263.296448 460.680908,259.393707 
	C460.623718,249.566956 459.425690,239.876801 457.635742,230.250687 
	C450.649872,192.680939 434.878021,159.263382 409.402832,130.740936 
	C387.128571,105.802307 360.382782,87.101158 329.032959,75.052711 
	C306.470581,66.381485 283.061432,61.950485 259.046814,61.534710 
	C237.713806,61.165356 216.743530,64.667793 195.580948,71.303085 
M129.499817,461.621643 
	C186.650574,461.621674 243.801544,461.537384 300.951935,461.682068 
	C314.913757,461.717438 326.947113,457.551514 337.551331,448.363647 
	C349.759064,437.786469 362.380035,427.685913 374.832611,417.391663 
	C395.759064,400.092285 416.709778,382.822235 437.614532,365.496765 
	C442.666962,361.309387 445.733582,356.071289 444.094971,349.305328 
	C441.155945,337.169830 428.887543,333.114502 418.219025,340.709717 
	C387.964355,362.249023 357.694305,383.768005 327.589111,405.514801 
	C322.042053,409.521759 316.396973,411.367767 309.550598,411.313629 
	C279.894043,411.079041 250.234680,411.221313 220.576462,411.158630 
	C217.260422,411.151611 213.919479,410.898193 210.634521,410.440247 
	C200.244186,408.991669 193.144150,403.100342 189.915466,393.293640 
	C186.647812,383.368530 188.679901,374.225586 196.141586,366.584167 
	C202.184143,360.396027 209.933395,358.876923 218.109177,358.829803 
	C235.270264,358.730835 252.433609,358.890259 269.593079,358.690674 
	C277.996033,358.592957 283.536133,351.188202 281.520630,343.362518 
	C280.116119,337.909180 274.759033,334.431488 267.480591,334.426514 
	C231.157501,334.401672 194.834320,334.441193 158.511307,334.386322 
	C152.016037,334.376495 146.451492,336.658112 141.566696,340.693817 
	C130.012772,350.239471 118.562012,359.910126 107.002617,369.449158 
	C105.031891,371.075470 104.057304,372.915497 104.060204,375.441101 
	C104.091316,402.599915 104.104645,429.758698 104.089172,456.917511 
	C104.087242,460.299744 105.661003,461.691772 109.005775,461.641357 
	C115.502411,461.543427 122.001656,461.618347 129.499817,461.621643 
M198.500183,283.382935 
	C163.840820,283.384583 129.181458,283.387421 94.522102,283.387482 
	C71.693642,283.387543 48.865120,283.407471 26.036776,283.354309 
	C22.795248,283.346771 20.212563,283.469360 21.621101,287.931854 
	C26.387432,303.032288 43.545380,315.610901 59.623268,315.612122 
	C190.428711,315.622192 321.234131,315.601654 452.039581,315.644165 
	C465.137665,315.648407 476.073792,310.866730 484.619598,301.118805 
	C488.813141,296.335358 492.221252,290.850922 492.998322,283.383118 
	C394.687988,283.383118 297.094086,283.383118 198.500183,283.382935 
M336.023041,376.450012 
	C354.841583,362.971405 373.660156,349.492828 392.478699,336.014221 
	C392.317047,335.683197 392.155396,335.352203 391.993744,335.021179 
	C361.063812,335.021179 330.133881,335.021179 298.944641,335.021179 
	C299.197937,336.979828 299.283569,338.302307 299.548004,339.587982 
	C303.793793,360.228668 289.988800,377.336395 269.002838,377.374603 
	C254.508347,377.401001 240.013779,377.370544 225.519241,377.375153 
	C221.854355,377.376343 218.172668,377.202271 214.528885,377.490356 
	C210.136063,377.837677 207.160980,381.014526 207.253311,384.886444 
	C207.363770,389.519073 210.302216,391.657166 214.418549,392.517273 
	C215.699982,392.785034 217.075348,392.624054 218.407715,392.624237 
	C248.063202,392.628235 277.718872,392.578461 307.373962,392.687164 
	C311.221527,392.701263 314.568237,391.886719 317.645416,389.634308 
	C323.537750,385.321320 329.467407,381.059326 336.023041,376.450012 
z"/>
<path fill="#000000" opacity="1.000000" stroke="none" 
	d="
M17.654156,448.411652 
	C20.448847,436.049286 28.736816,428.045288 41.077477,426.865204 
	C51.393211,425.878723 61.762665,429.565369 67.601700,441.627045 
	C75.989243,458.953186 63.541122,479.046722 45.531513,479.352386 
	C26.659344,479.672729 17.526953,469.592926 17.654156,448.411652 
M40.124504,460.289062 
	C43.732033,461.750885 46.939762,461.208099 49.567497,458.259369 
	C51.453232,456.143250 52.226021,453.682281 51.153816,450.924988 
	C49.835480,447.534790 47.387543,445.473663 43.668789,445.457428 
	C40.170483,445.442139 37.756584,447.331970 36.395035,450.488861 
	C34.656326,454.520203 36.389492,457.476776 40.124504,460.289062 
z"/>
<path fill="#000000" opacity="1.000000" stroke="none" 
	d="
M132.808273,123.826035 
	C152.449402,106.003929 174.803741,93.577484 199.669434,85.762268 
	C215.517441,80.781281 231.709778,77.420197 248.491928,77.569656 
	C257.369720,77.648727 257.371979,77.404396 257.375305,86.401009 
	C257.375671,87.399818 257.380890,88.398674 257.372437,89.397423 
	C257.321564,95.418076 256.569092,96.436630 250.473389,96.307167 
	C238.572632,96.054405 227.046021,98.270973 215.639221,101.206467 
	C190.028656,107.797241 166.973038,119.352661 147.102356,136.991974 
	C145.126694,138.745773 142.905289,140.222763 139.660873,142.694504 
	C136.089203,138.792084 132.061981,135.059845 128.876404,130.711090 
	C126.061127,126.867851 130.761459,126.012871 132.808273,123.826035 
z"/>
<path fill="#000000" opacity="1.000000" stroke="none" 
	d="
M112.385918,144.335114 
	C114.895325,140.705460 117.436501,139.681595 120.572906,143.053558 
	C120.899300,143.404449 121.431137,143.554901 121.832237,143.847000 
	C130.687668,150.295898 130.836563,151.617477 124.181259,160.128464 
	C121.941444,162.992798 119.971695,166.069412 117.900810,169.064438 
	C115.895927,171.963989 113.566330,173.120514 110.473526,170.556473 
	C110.218208,170.344788 109.949699,170.145569 109.670830,169.966217 
	C95.470367,160.834122 98.876770,163.551651 106.452187,151.488220 
	C108.022133,148.988174 110.220055,146.882462 112.385918,144.335114 
z"/>
</svg>